<svg width="375" height="375" viewBox="0 0 375 375" fill="none" xmlns="http://www.w3.org/2000/svg">
<g clip-path="url(#clip0_193_7757)">
<path d="M363.559 231.038L363.557 231.036C362.257 229.428 361.883 228.049 362.011 226.86C362.141 225.654 362.797 224.551 363.737 223.527C364.677 222.503 365.863 221.598 366.989 220.782C367.175 220.648 367.36 220.515 367.543 220.384C368.443 219.739 369.284 219.135 369.817 218.593L369.817 218.593L369.821 218.588C371.565 216.761 373.814 215.944 376.151 215.095C376.213 215.072 376.275 215.05 376.337 215.027C378.705 214.166 381.156 213.241 382.904 211.064L382.905 211.064L382.91 211.057C384.245 209.331 386.471 208.488 388.938 208.698C389.48 208.821 390.054 208.96 390.559 209.311C391.264 209.833 391.684 210.68 391.837 211.585C391.991 212.492 391.862 213.375 391.567 213.925C391.225 214.469 390.742 214.89 390.181 215.337C390.11 215.394 390.037 215.451 389.964 215.51C389.469 215.9 388.926 216.329 388.472 216.865L388.47 216.868C387.696 217.796 387.252 219.022 386.947 220.311C386.707 221.324 386.545 222.418 386.388 223.481C386.345 223.77 386.303 224.056 386.26 224.337C386.053 225.677 385.82 226.918 385.416 227.934C385.015 228.943 384.465 229.675 383.654 230.066L383.654 230.066L383.644 230.071C382.551 230.629 381.146 230.465 379.525 230.144C379.305 230.1 379.081 230.054 378.855 230.007C378.276 229.887 377.682 229.764 377.108 229.678C376.303 229.557 375.488 229.499 374.718 229.62L374.717 229.62C373.59 229.8 372.662 230.335 371.817 230.899C371.595 231.047 371.381 231.195 371.17 231.341C370.558 231.766 369.977 232.168 369.326 232.479L369.316 232.484L369.306 232.489C367.719 233.341 365.282 233.198 363.559 231.038ZM363.179 231.344L363.179 231.344L363.179 231.344Z" stroke="url(#paint0_linear_193_7757)" stroke-miterlimit="10"/>
<path d="M392.099 223.885L392.098 223.891C392.036 224.611 391.993 225.369 391.949 226.149C391.873 227.475 391.794 228.862 391.614 230.229C391.33 232.386 390.808 234.328 389.742 235.638C388.755 236.833 387.439 237.331 385.858 237.525C384.553 237.67 383.131 237.476 381.587 237.149C380.883 237 380.163 236.825 379.422 236.645C379.351 236.628 379.28 236.61 379.209 236.593C378.397 236.396 377.561 236.196 376.711 236.024C375.193 235.685 373.722 235.499 372.344 235.721C370.756 235.899 369.388 236.517 368.081 237.268C367.487 237.61 366.897 237.985 366.305 238.361C366.247 238.398 366.189 238.435 366.13 238.472C365.476 238.887 364.816 239.302 364.121 239.689L364.117 239.691C360.326 241.85 355.689 240.532 352.598 236.535C351.554 235.184 350.732 233.819 350.13 232.44C349.282 230.354 348.623 227.96 348.528 225.713C348.433 223.46 348.904 221.413 350.246 219.941C350.507 219.656 350.904 219.436 351.426 219.258C351.947 219.081 352.549 218.961 353.189 218.845C353.297 218.825 353.406 218.806 353.515 218.786C354.044 218.692 354.591 218.595 355.091 218.468C355.694 218.314 356.287 218.104 356.751 217.76L356.751 217.76L356.757 217.756C357.712 217.025 358.611 216.303 359.473 215.609C361.063 214.331 362.531 213.15 364.009 212.195L364.009 212.195L364.017 212.19C366.014 210.844 367.746 209.219 369.426 207.644C369.618 207.463 369.81 207.283 370.001 207.105C371.876 205.354 373.719 203.708 375.885 202.524C376.848 201.999 378.084 201.873 379.457 201.763C379.53 201.757 379.603 201.752 379.677 201.746C380.933 201.647 382.291 201.541 383.43 201.039C383.885 200.892 384.206 200.699 384.551 200.362L384.557 200.357L384.562 200.352C386.974 197.849 390.438 197.042 394.041 197.709L394.048 197.711L394.055 197.712C395.027 197.863 396.005 198.213 397.014 198.971L397.1 199.036L397.157 199.049L397.176 199.065C398.537 200.231 399.423 202.008 399.822 203.803C400.224 205.61 400.112 207.337 399.594 208.392L399.591 208.4L399.587 208.408C399.152 209.38 398.462 210.083 397.67 210.762C397.478 210.927 397.277 211.093 397.071 211.261C396.453 211.769 395.797 212.308 395.252 212.941C394.821 213.427 394.461 213.879 394.153 214.426C393.353 215.791 392.921 217.368 392.647 218.984C392.432 220.255 392.311 221.579 392.194 222.861C392.163 223.206 392.131 223.548 392.099 223.885Z" stroke="url(#paint1_linear_193_7757)" stroke-miterlimit="10"/>
<path d="M394.289 242.86L394.289 242.86C396.128 241.03 396.931 238.111 397.285 234.895C397.519 232.769 397.551 230.593 397.581 228.581C397.597 227.543 397.612 226.549 397.653 225.629L397.654 225.625C397.677 225.187 397.698 224.74 397.72 224.287C397.92 220.128 398.146 215.437 399.933 211.675M394.289 242.86L400.377 211.888M394.289 242.86L394.284 242.865C392.59 244.6 390.389 244.996 388.05 244.964C386.197 244.931 384.26 244.503 382.226 243.944C381.504 243.746 380.765 243.529 380.015 243.31C378.677 242.918 377.302 242.515 375.923 242.185C373.903 241.663 371.996 241.532 370.242 241.655L370.242 241.655L370.229 241.656C368.118 241.859 366.28 242.64 364.51 243.623C363.626 244.114 362.752 244.66 361.871 245.211L361.821 245.242C360.953 245.786 360.075 246.335 359.154 246.856C352.88 250.379 346.18 247.849 341.751 242.056C340.238 239.942 338.84 237.813 337.97 235.608L337.97 235.608L337.967 235.601C336.717 232.554 335.415 228.794 334.956 225.214C334.496 221.624 334.897 218.323 336.915 216.071C337.274 215.687 337.9 215.429 338.775 215.268C339.64 215.109 340.661 215.059 341.73 215.02C341.843 215.015 341.957 215.011 342.071 215.007C343.019 214.973 343.992 214.939 344.863 214.827C345.827 214.703 346.752 214.477 347.408 213.986L347.412 213.983C348.714 212.988 349.949 211.97 351.148 210.982C351.784 210.459 352.409 209.944 353.028 209.445C354.826 207.997 356.595 206.668 358.503 205.586C361.698 203.798 364.037 200.931 366.28 198.115C366.363 198.011 366.447 197.906 366.53 197.801C368.705 195.068 370.814 192.417 373.584 190.662L373.586 190.661C374.101 190.331 374.786 190.179 375.621 190.155C376.454 190.13 377.389 190.234 378.373 190.373C378.665 190.414 378.963 190.458 379.262 190.503C379.958 190.608 380.665 190.714 381.339 190.783C382.304 190.882 383.257 190.914 384.097 190.751M394.289 242.86L373.318 190.247C374.746 189.332 377.053 189.678 379.341 190.021C381.024 190.273 382.697 190.524 384.001 190.269M399.933 211.675C399.934 211.674 399.934 211.673 399.934 211.673L400.377 211.888M399.933 211.675C399.933 211.675 399.933 211.676 399.933 211.676L400.377 211.888M399.933 211.675C400.315 210.857 400.834 210.082 401.306 209.458L401.312 209.449L401.312 209.449C402.138 208.407 403.123 207.574 404.058 206.784C404.307 206.574 404.552 206.367 404.789 206.16C405.938 205.157 406.96 204.118 407.614 202.625L407.619 202.613L407.619 202.613C408.357 201.042 408.438 198.473 407.784 195.803C407.145 193.197 405.829 190.598 403.883 188.859M400.377 211.888C400.738 211.113 401.237 210.368 401.698 209.757C402.491 208.756 403.428 207.963 404.359 207.176C405.796 205.961 407.216 204.76 408.063 202.827C409.671 199.404 408.304 192.038 404.085 188.389C404.035 188.306 403.985 188.224 403.898 188.276C402.292 186.991 400.774 186.439 399.267 186.104C394.25 185.06 389.07 185.905 385.408 189.655C385.022 189.997 384.536 190.175 384.001 190.269M403.883 188.859L404.153 188.698C404.108 188.724 404.026 188.758 403.917 188.748C403.872 188.743 403.834 188.733 403.8 188.719C403.754 188.7 403.719 188.676 403.697 188.658C403.687 188.649 403.678 188.641 403.672 188.635C403.666 188.629 403.662 188.625 403.659 188.621C403.652 188.613 403.648 188.608 403.648 188.607C403.648 188.607 403.649 188.609 403.652 188.614L403.667 188.638L403.708 188.706L403.768 188.757C403.806 188.791 403.845 188.825 403.883 188.859ZM403.883 188.859L403.863 188.871L403.596 188.657C402.066 187.433 400.624 186.907 399.171 186.583M399.171 186.583C399.172 186.584 399.173 186.584 399.174 186.584L399.267 186.104L399.167 186.583C399.169 186.583 399.17 186.583 399.171 186.583ZM399.171 186.583C394.266 185.563 389.275 186.401 385.76 190L385.748 190.013L385.735 190.024C385.26 190.445 384.68 190.647 384.097 190.751M384.097 190.751C384.098 190.751 384.099 190.751 384.101 190.75L384.001 190.269M384.097 190.751C384.095 190.752 384.094 190.752 384.093 190.752L384.001 190.269" stroke="url(#paint2_linear_193_7757)" stroke-miterlimit="10"/>
<path d="M403.31 227.512L403.31 227.512C403.259 228.705 403.247 230.015 403.235 231.394C403.212 234.009 403.187 236.876 402.886 239.678C402.429 243.949 401.344 247.863 398.781 250.24C396.489 252.339 393.298 252.672 390.213 252.409C387.819 252.191 385.374 251.528 382.865 250.758C382.261 250.572 381.653 250.381 381.042 250.188C379.128 249.584 377.179 248.969 375.224 248.508C372.611 247.784 370.288 247.559 368.073 247.726L368.071 247.726C363.609 248.076 359.954 250.387 355.992 252.893C355.396 253.27 354.792 253.651 354.178 254.031L354.178 254.032C349.946 256.659 345.612 256.933 341.618 255.624C337.61 254.31 333.919 251.39 331.037 247.592L331.033 247.587C328.914 244.859 327.145 241.933 325.907 238.921C324.283 234.963 322.338 229.847 321.512 224.942C320.682 220.017 321.005 215.448 323.736 212.445L323.737 212.444C324.22 211.911 325.099 211.595 326.324 211.44C327.532 211.288 328.965 211.305 330.452 211.34C330.606 211.344 330.761 211.348 330.916 211.352C332.24 211.384 333.587 211.418 334.78 211.334C336.096 211.241 337.333 211.002 338.167 210.375L338.169 210.373C339.981 208.993 341.67 207.568 343.31 206.185C344.104 205.516 344.886 204.856 345.666 204.215C348.066 202.243 350.459 200.434 353.152 198.996C357.28 196.827 360.09 192.933 362.742 189.051C362.926 188.782 363.109 188.512 363.292 188.244C365.772 184.601 368.181 181.061 371.491 178.785C372.101 178.377 372.951 178.239 374.021 178.309C375.088 178.379 376.302 178.648 377.583 178.982C378.034 179.099 378.497 179.225 378.962 179.352C379.797 179.58 380.641 179.81 381.446 179.997C382.703 180.288 383.936 180.492 385.011 180.424L385.032 180.422L385.054 180.419L385.072 180.416C385.439 180.36 385.849 180.297 386.22 180.184C386.597 180.069 386.984 179.888 387.277 179.563C391.812 174.92 398.196 174.029 404.532 175.435C406.389 175.847 408.407 176.569 410.355 178.28C410.397 178.329 410.439 178.365 410.471 178.389C410.512 178.42 410.554 178.446 410.576 178.459L410.62 178.5C413.221 180.903 415.004 184.456 415.898 187.981C416.795 191.519 416.771 194.927 415.875 197.037L415.873 197.041C415.025 199.091 413.653 200.477 412.133 201.797C411.843 202.049 411.545 202.3 411.245 202.554C409.989 203.613 408.679 204.718 407.614 206.144L407.607 206.154L407.6 206.164L407.588 206.182C406.974 207.099 406.331 208.06 405.876 209.143C404.579 211.928 404.004 215.071 403.719 218.229C403.525 220.377 403.463 222.562 403.404 224.654C403.376 225.631 403.349 226.588 403.31 227.512Z" stroke="url(#paint3_linear_193_7757)" stroke-miterlimit="10"/>
<path d="M403.31 257.493L403.312 257.492C406.626 254.61 407.981 249.679 408.513 244.328C408.866 240.782 408.852 237.147 408.84 233.884C408.834 232.218 408.828 230.649 408.871 229.239C408.897 228.216 408.911 227.158 408.926 226.077C408.962 223.399 409 220.576 409.212 217.786C409.51 213.866 410.153 209.957 411.636 206.503C412.165 205.148 412.884 203.917 413.735 202.727C415.049 200.835 416.723 199.415 418.338 198.046C418.647 197.784 418.954 197.524 419.256 197.262C421.152 195.621 422.887 193.907 423.954 191.337L423.955 191.334C425.069 188.704 425.07 184.473 423.92 180.077C422.774 175.695 420.511 171.25 417.213 168.193L417.162 168.145L417.159 168.14C417.151 168.135 417.143 168.129 417.135 168.123C417.07 168.076 416.975 168.001 416.888 167.881C414.417 165.704 411.939 164.812 409.675 164.311L409.667 164.309L409.667 164.309C401.992 162.467 394.119 163.46 388.472 169.216L388.463 169.225L388.463 169.224C387.725 169.94 386.794 170.056 385.758 170.112L385.744 170.113L385.73 170.112C384.434 170.109 382.919 169.745 381.36 169.265C380.392 168.967 379.376 168.614 378.367 168.263C377.756 168.051 377.146 167.839 376.552 167.641C374.956 167.11 373.443 166.668 372.132 166.506C370.81 166.342 369.788 166.475 369.092 166.981L369.091 166.982C365.17 169.815 362.444 174.279 359.653 178.851C359.395 179.273 359.136 179.697 358.876 180.121C355.832 185.072 352.577 189.976 347.497 192.479C343.948 194.259 340.909 196.562 337.918 199.052C337.012 199.807 336.108 200.58 335.195 201.362C333.106 203.149 330.97 204.977 328.656 206.705M403.31 257.493L328.358 206.312M403.31 257.493C400.29 260.14 396.194 260.353 392.368 259.857C389.436 259.453 386.487 258.554 383.464 257.555C382.926 257.377 382.385 257.195 381.841 257.013C379.346 256.177 376.798 255.323 374.204 254.689L403.31 257.493ZM328.656 206.705C328.656 206.706 328.656 206.706 328.655 206.706L328.358 206.312M328.656 206.705C328.657 206.705 328.657 206.705 328.657 206.705L328.358 206.312M328.656 206.705C327.651 207.463 326.11 207.717 324.441 207.778C322.906 207.834 321.161 207.727 319.438 207.622C319.262 207.611 319.086 207.601 318.911 207.59C317.003 207.475 315.15 207.383 313.591 207.516C312.01 207.65 310.86 208.009 310.235 208.68M328.358 206.312C326.686 207.574 323.09 207.355 319.458 207.133C315.476 206.89 311.452 206.645 309.872 208.346M310.235 208.68C310.235 208.68 310.236 208.68 310.236 208.679L309.872 208.346M310.235 208.68C310.235 208.681 310.234 208.681 310.234 208.681L309.872 208.346M310.235 208.68L309.872 208.346M319.973 253.126L319.583 253.417L319.975 253.13C319.975 253.129 319.974 253.128 319.974 253.128C319.973 253.127 319.973 253.127 319.973 253.126Z" stroke="url(#paint4_linear_193_7757)" stroke-miterlimit="10"/>
<path d="M414.393 231.096L414.393 231.098C414.366 232.681 414.393 234.443 414.42 236.319C414.48 240.28 414.546 244.745 414.134 249.091C413.527 255.491 411.89 261.424 407.8 264.881C404.17 267.893 399.212 268.063 394.513 267.305C391.045 266.713 387.604 265.599 384.104 264.379C383.45 264.151 382.793 263.919 382.134 263.686C379.278 262.677 376.376 261.652 373.414 260.85C369.787 259.831 366.55 259.474 363.517 259.676L363.511 259.676C356.559 260.211 350.91 263.851 344.328 268.091L343.99 268.309L343.99 268.309C337.497 272.497 330.933 272.866 324.937 270.806C318.921 268.74 313.449 264.219 309.213 258.587C306.097 254.42 303.343 250.064 301.47 245.423L301.469 245.42C301.409 245.273 301.348 245.126 301.287 244.977C298.915 239.213 295.784 231.607 294.238 224.26C292.646 216.698 292.772 209.59 296.914 205.028C297.684 204.217 299.109 203.818 301.044 203.704C302.955 203.59 305.227 203.759 307.556 203.953C307.753 203.97 307.951 203.986 308.15 204.003C310.271 204.182 312.413 204.362 314.287 204.335C316.311 204.305 318.154 204.035 319.328 203.148L319.33 203.146C321.982 201.123 324.43 198.995 326.824 196.914C328.033 195.863 329.229 194.824 330.429 193.816C334.023 190.802 337.701 188.036 342.066 185.94L342.068 185.938C347.998 183.046 351.674 177.154 355.104 171.149C355.417 170.601 355.729 170.052 356.039 169.504C359.162 163.993 362.231 158.577 366.77 155.13L366.773 155.128C367.563 154.519 368.759 154.388 370.326 154.641C371.879 154.891 373.684 155.5 375.586 156.228C376.378 156.531 377.195 156.858 378.013 157.186C379.129 157.633 380.247 158.081 381.308 158.471C383.154 159.148 384.934 159.69 386.435 159.799C387.785 159.946 388.879 159.719 389.703 158.961L389.712 158.953L389.72 158.944C396.39 152.136 405.886 151.069 414.854 153.267C417.591 153.943 420.539 155.011 423.538 157.667C423.573 157.709 423.606 157.74 423.627 157.76C423.665 157.795 423.706 157.829 423.733 157.851C423.759 157.872 423.775 157.885 423.787 157.896L423.803 157.923L423.855 157.971C427.821 161.638 430.545 166.986 431.939 172.243C433.337 177.515 433.373 182.591 432.081 185.717C430.777 188.875 428.666 190.951 426.388 192.917C426.03 193.226 425.667 193.533 425.303 193.841C423.362 195.481 421.367 197.167 419.82 199.438C418.836 200.826 418.047 202.324 417.4 203.845L417.4 203.847C415.639 208.027 414.94 212.73 414.652 217.43C414.466 220.482 414.452 223.565 414.44 226.511C414.433 228.087 414.426 229.624 414.393 231.096Z" stroke="url(#paint5_linear_193_7757)" stroke-miterlimit="10"/>
<path d="M387.476 149.411C388.917 149.584 390.336 149.45 391.227 148.511C398.92 140.653 409.813 139.536 420.208 142.118C423.41 142.967 426.818 144.208 430.338 147.329C430.421 147.442 430.51 147.515 430.561 147.557L430.568 147.563C430.623 147.608 430.625 147.613 430.626 147.615L430.626 147.616L430.662 147.674L430.712 147.722C435.306 152.027 438.489 158.279 440.132 164.411C441.779 170.558 441.85 176.478 440.341 180.124L440.339 180.127L420.537 232.996M387.476 149.411C385.744 149.213 383.68 148.509 381.529 147.643C380.288 147.143 378.984 146.575 377.684 146.007C376.739 145.595 375.795 145.184 374.878 144.8C372.67 143.875 370.573 143.09 368.777 142.729C366.962 142.364 365.585 142.46 364.697 143.127C359.584 147.107 356.192 153.439 352.743 159.877C352.364 160.584 351.985 161.293 351.602 162C347.769 169.081 343.629 175.987 336.755 179.21L336.754 179.211C331.573 181.624 327.247 184.885 323.05 188.426C321.708 189.557 320.377 190.721 319.033 191.894C316.19 194.378 313.296 196.906 310.154 199.269C308.811 200.284 306.666 200.565 304.285 200.558C302.106 200.552 299.613 200.301 297.135 200.052C296.873 200.026 296.61 199.999 296.348 199.973C293.598 199.699 290.912 199.46 288.659 199.568C286.379 199.678 284.695 200.14 283.805 201.129L283.803 201.131C278.936 206.455 278.912 214.864 280.888 223.773C282.725 232.056 286.25 240.604 288.957 247.168C289.152 247.64 289.342 248.102 289.527 248.552C291.763 253.989 295.018 259.168 298.537 263.995C303.436 270.521 309.781 275.839 316.792 278.293C323.784 280.741 331.466 280.352 339.115 275.422C346.847 270.382 353.358 266.159 361.384 265.612C364.867 265.367 368.607 265.762 372.701 266.957C376.109 267.919 379.451 269.175 382.748 270.414C383.428 270.67 384.107 270.925 384.784 271.176C388.753 272.652 392.672 274.012 396.646 274.751C402.093 275.744 408.007 275.777 412.367 272.218C417.216 268.253 419.134 261.319 419.828 253.859C420.304 248.746 420.199 243.485 420.108 238.864C420.065 236.744 420.026 234.759 420.047 232.985M387.476 149.411C387.476 149.411 387.476 149.411 387.477 149.411L387.525 148.925L387.474 149.411C387.474 149.411 387.475 149.411 387.476 149.411ZM420.047 232.985C420.047 232.984 420.047 232.984 420.047 232.983L420.537 232.996M420.047 232.985C420.047 232.985 420.047 232.985 420.047 232.986L420.537 232.996M420.047 232.985C420.056 231.561 420.049 230.089 420.042 228.584C420.024 224.884 420.005 220.982 420.23 217.106C420.547 211.647 421.35 206.185 423.341 201.31M420.537 232.996C420.546 231.561 420.539 230.082 420.532 228.573C420.489 219.674 420.44 209.716 423.795 201.501M423.341 201.31C423.341 201.311 423.34 201.311 423.34 201.312L423.795 201.501M423.341 201.31L423.795 201.501M423.341 201.31L423.795 201.501M426.126 196.122C426.126 196.123 426.125 196.124 426.124 196.125L426.531 196.404L426.129 196.119C426.128 196.12 426.127 196.121 426.126 196.122Z" stroke="url(#paint6_linear_193_7757)" stroke-miterlimit="10"/>
<path d="M416.808 279.528L416.804 279.531C411.885 283.534 404.976 283.427 398.789 282.2C394.281 281.273 389.86 279.677 385.385 277.983C384.844 277.779 384.303 277.573 383.76 277.366C379.823 275.868 375.832 274.349 371.732 273.221C367.094 271.907 362.941 271.419 359.004 271.707C350.028 272.258 342.727 276.949 333.946 282.611L333.942 282.613C325.187 288.365 316.378 288.808 308.37 285.985C300.34 283.155 293.088 277.031 287.525 269.609L287.524 269.607C283.334 264.066 279.63 258.148 277.119 251.869L277.119 251.868C276.748 250.948 276.355 249.987 275.948 248.991C272.97 241.696 269.208 232.48 267.147 223.52C264.796 213.305 264.705 203.626 270.271 197.498L270.273 197.496C271.264 196.395 273.194 195.908 275.816 195.828C278.405 195.75 281.506 196.069 284.676 196.423C284.927 196.451 285.179 196.479 285.431 196.507C288.34 196.833 291.273 197.162 293.825 197.194C295.214 197.212 296.508 197.142 297.638 196.931C298.765 196.72 299.759 196.363 300.523 195.785C304.152 193.056 307.47 190.13 310.729 187.257C312.25 185.916 313.758 184.586 315.278 183.293C320.072 179.218 325.025 175.474 331.023 172.743L331.025 172.742C338.812 169.147 343.394 161.244 347.624 153.103C348.058 152.267 348.489 151.429 348.919 150.591C350.595 147.328 352.263 144.08 354.111 141.067C356.43 137.284 359.013 133.908 362.204 131.38C363.213 130.592 364.782 130.502 366.843 130.964C368.884 131.421 371.269 132.386 373.781 133.516C374.799 133.974 375.843 134.461 376.89 134.95C378.398 135.654 379.91 136.36 381.355 136.983C383.804 138.038 386.151 138.895 388.124 139.149C389.795 139.442 391.277 139.24 392.331 138.22L392.331 138.22L392.34 138.211C401.145 129.244 413.577 128.107 425.265 131.046C428.895 131.99 432.914 133.442 436.836 137.03L436.873 137.064L436.916 137.09C436.954 137.112 436.988 137.142 437.064 137.216L437.072 137.224C437.132 137.282 437.222 137.369 437.34 137.448C442.585 142.363 446.238 149.49 448.136 156.475C450.042 163.49 450.15 170.255 448.421 174.421L448.419 174.427C446.744 178.64 443.951 181.4 440.934 184.014C440.466 184.42 439.991 184.823 439.514 185.227C436.936 187.416 434.293 189.659 432.251 192.701C430.985 194.588 429.906 196.593 429.104 198.665C426.883 204.237 426.012 210.465 425.682 216.686C425.455 220.958 425.484 225.255 425.511 229.342C425.523 231.198 425.535 233.011 425.523 234.759C425.501 236.852 425.56 239.205 425.622 241.722C425.75 246.935 425.896 252.847 425.389 258.592C424.637 267.106 422.458 275.03 416.808 279.528Z" stroke="url(#paint7_linear_193_7757)" stroke-miterlimit="10"/>
<path d="M438.238 189.244C436.838 191.329 435.774 193.553 434.817 195.925L434.815 195.93C432.362 202.199 431.435 209.218 431.116 216.217C430.897 221.001 430.963 225.805 431.026 230.361C431.055 232.462 431.083 234.511 431.082 236.481C431.076 238.719 431.148 241.231 431.225 243.919C431.396 249.856 431.592 256.649 431.014 263.238C430.176 272.81 427.715 281.738 421.329 286.786C415.621 291.261 407.842 291.105 400.877 289.564L400.873 289.564C395.857 288.49 390.96 286.7 386.014 284.795C385.318 284.527 384.622 284.257 383.924 283.986C379.67 282.337 375.365 280.668 370.941 279.381C365.783 277.809 361.128 277.283 356.83 277.562L356.828 277.562C346.866 278.252 338.644 283.375 328.941 289.696L328.94 289.697C319.027 296.191 309.099 296.654 300.095 293.443C291.069 290.224 282.944 283.302 276.717 274.985L276.715 274.983C271.989 268.754 267.834 262.095 264.96 255.021C264.494 253.872 263.998 252.664 263.481 251.406C260.131 243.256 255.917 233.002 253.562 223.027C250.834 211.48 250.65 200.519 256.939 193.627C257.502 193.012 258.332 192.565 259.413 192.267C260.495 191.969 261.797 191.826 263.265 191.797C266.205 191.739 269.726 192.135 273.317 192.568C273.59 192.601 273.864 192.634 274.138 192.667C277.446 193.068 280.775 193.471 283.667 193.532C285.234 193.565 286.691 193.499 287.96 193.271C289.226 193.044 290.336 192.652 291.183 192.009C295.163 189.006 298.822 185.773 302.426 182.588C304.19 181.029 305.942 179.481 307.712 177.977C313.115 173.387 318.731 169.166 325.546 166.118L325.546 166.117C334.23 162.218 339.266 153.339 343.893 144.139C344.398 143.135 344.898 142.128 345.397 141.121C347.199 137.49 348.994 133.873 350.983 130.512C353.522 126.224 356.356 122.391 359.879 119.529L359.879 119.529C360.966 118.646 362.698 118.568 364.997 119.127C367.27 119.68 369.943 120.817 372.761 122.144C373.921 122.689 375.11 123.27 376.302 123.852C377.979 124.671 379.661 125.492 381.27 126.221C384.028 127.471 386.665 128.496 388.87 128.836L388.876 128.837C390.708 129.099 392.425 129.042 393.541 127.851C403.46 117.78 417.377 116.545 430.399 119.919C434.496 121.037 438.979 122.663 443.427 126.724L443.464 126.757L443.507 126.783C443.544 126.806 443.578 126.836 443.654 126.909L443.663 126.917C443.722 126.975 443.812 127.062 443.929 127.14C449.825 132.733 453.904 140.756 456.026 148.601C458.157 156.475 458.291 164.067 456.41 168.773C454.491 173.467 451.332 176.556 447.942 179.489C447.445 179.919 446.943 180.346 446.439 180.774C443.517 183.257 440.531 185.794 438.238 189.244ZM438.238 189.244C438.238 189.244 438.238 189.243 438.239 189.243L438.646 189.519L438.237 189.245C438.238 189.245 438.238 189.244 438.238 189.244Z" stroke="url(#paint8_linear_193_7757)" stroke-miterlimit="10"/>
<path d="M281.858 188.45C286.324 185.08 290.397 181.455 294.408 177.887C296.345 176.163 298.267 174.453 300.212 172.79C306.201 167.671 312.445 162.966 320.121 159.574L320.123 159.574C329.717 155.304 335.194 145.43 340.219 135.17C340.77 134.045 341.316 132.915 341.861 131.786C343.814 127.742 345.76 123.711 347.926 119.967C350.694 115.181 353.8 110.902 357.688 107.713C358.888 106.735 360.809 106.676 363.349 107.334C365.861 107.984 368.817 109.292 371.932 110.813C373.232 111.448 374.566 112.123 375.901 112.8C377.739 113.73 379.58 114.662 381.343 115.494C384.395 116.934 387.309 118.123 389.743 118.551C391.802 118.933 393.677 118.761 394.873 117.528C405.73 106.452 421.137 105.115 435.589 108.877C440.092 110.084 445.091 111.964 450.066 116.5L450.103 116.533L450.146 116.559C450.168 116.572 450.204 116.605 450.301 116.708L450.314 116.723C450.38 116.793 450.486 116.907 450.617 116.997C457.158 123.16 461.706 132.053 464.082 140.756C466.466 149.488 466.636 157.925 464.536 163.151C462.423 168.408 458.91 171.846 455.148 175.098C454.594 175.577 454.033 176.053 453.471 176.53C450.232 179.278 446.931 182.079 444.41 185.901L444.41 185.901L444.404 185.911C442.94 188.249 441.664 190.704 440.626 193.36L440.625 193.362C437.941 200.328 436.944 208.114 436.613 215.876C436.391 221.062 436.466 226.266 436.537 231.214C436.572 233.661 436.607 236.046 436.604 238.334L436.604 238.335C436.603 240.794 436.692 243.563 436.787 246.532C436.997 253.099 437.239 260.641 436.61 267.958C435.696 278.582 432.953 288.515 425.763 294.097L425.761 294.098C419.492 299.017 410.716 298.786 403.01 297.011L403.009 297.011L281.557 188.059M281.858 188.45C281.857 188.451 281.857 188.451 281.857 188.451L281.557 188.059M281.858 188.45C281.858 188.45 281.858 188.45 281.858 188.45L281.557 188.059M281.858 188.45C280.928 189.156 279.702 189.585 278.298 189.828C276.89 190.072 275.27 190.136 273.524 190.088C270.314 190 266.615 189.529 262.934 189.061C262.616 189.021 262.298 188.98 261.98 188.94C257.971 188.433 254.037 187.968 250.753 188.017C249.112 188.042 247.656 188.195 246.446 188.525C245.237 188.856 244.304 189.356 243.674 190.053L243.672 190.055C236.66 197.71 236.959 209.941 240.079 222.797C242.714 233.658 247.323 244.81 251.013 253.738C251.679 255.349 252.315 256.888 252.904 258.34M281.557 188.059C278.311 190.524 270.675 189.554 262.983 188.575C254.659 187.517 246.269 186.45 243.308 189.722C230.023 204.227 242.519 234.464 250.563 253.926C251.228 255.536 251.863 257.072 252.45 258.519M252.904 258.34C252.904 258.34 252.903 258.34 252.903 258.339L252.45 258.519M252.904 258.34C252.904 258.341 252.904 258.341 252.904 258.341L252.45 258.519M252.904 258.34C256.14 266.207 260.746 273.608 265.925 280.579M252.45 258.519C255.707 266.437 260.339 273.875 265.533 280.867C279.441 299.478 301.821 312.052 324.311 297.355M324.311 297.355L324.037 296.946C324.037 296.945 324.038 296.945 324.038 296.945M324.311 297.355C335.031 290.319 343.99 284.888 354.758 284.205M324.311 297.355L324.038 296.945M265.925 280.579C265.924 280.579 265.924 280.579 265.924 280.579L265.534 280.866L265.925 280.58C265.925 280.58 265.925 280.579 265.925 280.579ZM265.925 280.579C272.839 289.832 281.838 297.551 291.863 301.141C301.867 304.724 312.924 304.208 324.038 296.945M324.038 296.945C334.746 289.916 343.804 284.41 354.717 283.717M354.758 284.205L354.717 283.717M354.758 284.205C359.442 283.886 364.451 284.495 370.109 286.174L370.242 285.705C370.241 285.705 370.24 285.704 370.239 285.704C364.536 284.012 359.469 283.394 354.717 283.717M354.758 284.205L354.719 283.716C354.718 283.716 354.718 283.716 354.717 283.717M437.094 238.342C437.097 236.038 437.062 233.646 437.027 231.194C436.85 218.864 436.651 205.047 441.083 193.543C442.109 190.919 443.371 188.491 444.821 186.174C447.301 182.414 450.544 179.662 453.783 176.913C458.152 173.205 462.514 169.503 464.991 163.339C469.305 152.606 464.205 129.101 450.919 116.613L437.094 238.342Z" stroke="url(#paint9_linear_193_7757)" stroke-miterlimit="10"/>
<path d="M405.141 304.458L405.145 304.459C413.631 306.548 423.274 306.828 430.331 301.437C438.281 295.348 441.293 284.391 442.292 272.68C442.973 264.703 442.715 256.481 442.491 249.317C442.385 245.964 442.288 242.842 442.297 240.085C442.287 237.616 442.238 235.041 442.186 232.396C442.081 226.938 441.969 221.181 442.197 215.439C442.535 206.904 443.623 198.335 446.608 190.686C447.718 187.768 449.071 185.038 450.808 182.53C453.565 178.324 457.184 175.241 460.743 172.209C461.351 171.691 461.957 171.175 462.556 170.655C466.685 167.074 470.551 163.285 472.883 157.507C475.201 151.76 474.995 142.478 472.362 132.871C469.736 123.285 464.722 113.479 457.544 106.678C457.407 106.565 457.308 106.459 457.228 106.373L457.224 106.369C457.139 106.279 457.075 106.21 456.984 106.136L456.974 106.128L456.965 106.119C451.462 101.11 446 99.0574 441.086 97.7593C425.344 93.642 408.399 94.9965 396.43 107.181L396.421 107.19L396.421 107.19C395.047 108.519 393.039 108.658 390.709 108.215L405.141 304.458ZM405.141 304.458C399.06 303.008 393.182 300.734 387.274 298.377C386.77 298.176 386.266 297.974 385.761 297.772C380.362 295.612 374.921 293.435 369.302 291.833C363.049 290.02 357.484 289.362 352.373 289.676C340.455 290.289 330.606 296.266 318.896 304L318.896 304C306.72 312.06 294.557 312.617 283.547 308.652C272.515 304.68 262.61 296.154 255.032 286.007L255.032 286.007C249.364 278.427 244.222 270.339 240.662 261.548L240.662 261.548M405.141 304.458L240.662 261.548M240.662 261.548C239.982 259.874 239.244 258.092 238.468 256.221C234.428 246.473 229.389 234.316 226.473 222.459C222.989 208.293 222.595 194.778 230.307 186.316C231.012 185.547 232.051 185.002 233.395 184.646C234.738 184.291 236.353 184.134 238.169 184.12C241.805 184.091 246.159 184.632 250.588 185.219C250.929 185.264 251.269 185.309 251.61 185.355C255.689 185.897 259.784 186.442 263.333 186.56C265.257 186.624 267.04 186.563 268.586 186.302C270.128 186.042 271.469 185.578 272.481 184.81L240.662 261.548Z" stroke="url(#paint10_linear_193_7757)" stroke-miterlimit="10"/>
<path d="M407.275 311.903L407.277 311.904C416.507 314.228 427.196 314.664 434.813 308.831L434.813 308.831C443.502 302.191 446.796 290.228 447.881 277.459C448.631 268.636 448.322 259.533 448.055 251.649C447.935 248.124 447.824 244.842 447.819 241.938C447.812 239.14 447.755 236.217 447.696 233.213C447.582 227.373 447.462 221.225 447.689 215.087C448.034 205.779 449.178 196.421 452.369 188.035L452.372 188.028C453.605 184.932 455.032 181.933 456.932 179.104C459.949 174.511 463.882 171.164 467.747 167.875C468.417 167.304 469.086 166.735 469.747 166.161C474.237 162.269 478.435 158.144 480.96 151.804L480.961 151.803C483.455 145.561 483.212 135.434 480.331 124.952C477.456 114.491 471.982 103.784 464.136 96.3727L464.124 96.3631C463.92 96.1951 463.65 95.9741 463.457 95.686C457.447 90.2377 451.539 88.0193 446.174 86.5513C429.096 81.9973 410.662 83.4499 397.579 96.7413C396.16 98.2218 393.911 98.3734 391.394 97.8178C388.51 97.2344 385.037 95.7205 381.383 93.894C379.284 92.8447 377.093 91.6754 374.906 90.5077C373.291 89.6459 371.678 88.7849 370.105 87.9737C366.372 86.049 362.826 84.3847 359.822 83.5337C356.787 82.6736 354.485 82.6961 353.067 83.88C348.482 87.7334 344.853 92.9149 341.636 98.7041C339.148 103.182 336.92 107.999 334.687 112.826C334.031 114.244 333.374 115.663 332.711 117.074C326.891 129.455 320.519 141.295 309.12 146.239L309.12 146.239C299.806 150.267 292.272 155.932 285.076 162.102C282.705 164.135 280.366 166.228 278.011 168.335C273.236 172.607 268.396 176.938 263.088 180.952L263.086 180.954C261.985 181.774 260.525 182.266 258.841 182.536C257.154 182.808 255.206 182.862 253.102 182.781C249.235 182.632 244.774 182.02 240.326 181.411C239.937 181.357 239.548 181.304 239.16 181.251C234.313 180.59 229.544 179.98 225.561 179.994C223.57 180.002 221.798 180.165 220.323 180.547C218.847 180.93 217.7 181.522 216.921 182.363C208.485 191.59 208.974 206.388 212.834 221.885C216.044 234.769 221.542 247.979 225.957 258.586C226.84 260.709 227.681 262.728 228.45 264.619M407.275 311.903L227.997 264.797M407.275 311.903C400.661 310.264 394.282 307.756 387.879 305.147C387.224 304.88 386.569 304.613 385.913 304.344C380.168 301.995 374.382 299.629 368.408 297.827L368.406 297.827C361.689 295.84 355.709 295.091 350.143 295.448M407.275 311.903L368.273 298.295C361.602 296.322 355.68 295.583 350.182 295.936M228.45 264.619C228.45 264.619 228.45 264.619 228.45 264.619L227.997 264.797M228.45 264.619C228.45 264.619 228.45 264.619 228.45 264.619L227.997 264.797M228.45 264.619C232.374 274.206 237.881 283.087 244.083 291.351L244.084 291.352C252.325 302.394 263.103 311.717 275.143 316.072C287.16 320.418 300.464 319.828 313.842 311L313.843 310.999C326.605 302.641 337.153 296.252 350.143 295.448M227.997 264.797C231.941 274.434 237.473 283.353 243.692 291.64C260.252 313.828 287.097 329.239 314.117 311.41C326.889 303.045 337.337 296.731 350.182 295.936M350.143 295.448L350.182 295.936M350.143 295.448C350.143 295.448 350.144 295.448 350.144 295.448L350.182 295.936M452.828 188.215C447.576 202.015 447.899 218.52 448.186 233.19C448.245 236.199 448.302 239.13 448.31 241.945C448.314 244.821 448.425 248.085 448.544 251.6C449.198 270.909 450.108 297.764 435.115 309.22C427.316 315.193 416.434 314.712 407.164 312.378L452.828 188.215ZM452.828 188.215C454.054 185.137 455.467 182.171 457.342 179.379L452.828 188.215Z" stroke="url(#paint11_linear_193_7757)" stroke-miterlimit="10"/>
<path d="M409.411 319.354L409.411 319.353C402.264 317.526 395.396 314.803 388.5 311.996C387.976 311.783 387.452 311.569 386.928 311.355C380.559 308.758 374.146 306.142 367.487 304.175L367.485 304.174C360.217 302.066 353.877 301.31 347.817 301.626L347.814 301.627C333.873 302.434 322.487 309.208 308.721 318.273L308.718 318.275C294.234 327.925 279.824 328.556 266.812 323.821C253.777 319.078 242.114 308.937 233.21 297L233.209 296.998C226.417 287.961 220.375 278.392 216.177 267.965L216.177 267.965C215.256 265.677 214.236 263.216 213.158 260.617C208.458 249.275 202.668 235.306 199.229 221.666C194.994 204.865 194.389 188.794 203.526 178.761C204.362 177.845 205.602 177.204 207.2 176.792C208.798 176.382 210.721 176.21 212.882 176.208C217.206 176.205 222.391 176.883 227.661 177.615C228.077 177.673 228.493 177.731 228.91 177.789C233.754 178.465 238.611 179.143 242.818 179.316C245.104 179.41 247.217 179.357 249.046 179.067C250.87 178.778 252.446 178.25 253.629 177.367L253.629 177.366C259.455 172.997 264.758 168.254 269.995 163.57C272.491 161.338 274.972 159.119 277.487 156.96C285.298 150.257 293.482 144.095 303.614 139.75C315.948 134.476 322.761 121.643 328.972 108.192C329.686 106.647 330.391 105.092 331.097 103.539C333.474 98.3057 335.846 93.082 338.502 88.2254C341.944 81.9321 345.841 76.299 350.792 72.1176C352.302 70.8517 354.782 70.8549 358.056 71.8168C361.295 72.7681 365.127 74.6023 369.163 76.7185C370.867 77.6122 372.614 78.5597 374.362 79.5081C376.726 80.7903 379.093 82.0744 381.363 83.2299C385.321 85.2441 389.079 86.919 392.193 87.5892L392.203 87.591C394.928 88.1214 397.227 88.0556 398.823 86.4764L398.827 86.4722C413.023 72.0718 432.908 70.6518 451.367 75.5109C457.277 77.0995 463.699 79.5724 470.186 85.4129C470.38 85.7008 470.649 85.9217 470.854 86.0896L470.864 86.0979C479.361 94.1871 485.282 105.778 488.392 117.092C491.509 128.426 491.778 139.38 489.088 146.186C486.387 153.021 481.836 157.495 476.969 161.723C476.259 162.34 475.541 162.953 474.821 163.567C470.625 167.147 466.357 170.788 463.106 175.764L463.103 175.769C461.133 178.86 459.581 182.04 458.271 185.412L458.27 185.414C454.778 194.483 453.543 204.623 453.192 214.705C452.958 221.402 453.115 228.104 453.263 234.457C453.338 237.657 453.411 240.768 453.431 243.745C453.441 246.869 453.569 250.405 453.706 254.208C454.013 262.724 454.369 272.578 453.566 282.131C452.406 295.951 448.83 308.919 439.336 316.093L439.334 316.094C430.981 322.477 419.38 321.911 409.411 319.354Z" stroke="url(#paint12_linear_193_7757)" stroke-miterlimit="10"/>
<path d="M411.551 326.799L411.549 326.799C403.869 324.783 396.501 321.824 389.087 318.805C388.783 318.682 388.48 318.558 388.176 318.434C381.072 315.539 373.914 312.622 366.432 310.489C358.645 308.123 351.717 307.381 345.3 307.689L345.296 307.689C330.403 308.5 318.228 315.742 303.46 325.513L303.459 325.513C287.861 335.88 272.332 336.532 258.312 331.414C244.269 326.289 231.712 315.363 222.146 302.532C214.903 292.753 208.409 282.442 203.849 271.222L203.848 271.221C202.876 268.839 201.804 266.278 200.671 263.576C195.538 251.323 189.178 236.144 185.398 221.323C180.775 203.199 180.075 185.843 189.936 175.045C190.846 174.057 192.194 173.371 193.926 172.935C195.658 172.499 197.74 172.324 200.076 172.332C204.752 172.35 210.356 173.105 216.047 173.916C216.486 173.979 216.925 174.041 217.364 174.104C222.606 174.855 227.859 175.607 232.405 175.81C234.87 175.919 237.146 175.869 239.113 175.563C241.076 175.257 242.767 174.693 244.031 173.747L244.032 173.746C250.298 169.04 255.983 163.931 261.6 158.883C264.277 156.477 266.938 154.085 269.639 151.758C278.025 144.532 286.838 137.886 297.832 133.197C311.076 127.553 318.364 113.736 324.99 99.2283C325.771 97.519 326.542 95.7998 327.313 94.0816C329.827 88.4792 332.336 82.8876 335.144 77.6854C338.81 70.8922 342.961 64.8078 348.244 60.2904C349.881 58.8962 352.565 58.9072 356.092 59.9625C359.582 61.0069 363.712 63.0175 368.056 65.3354C369.907 66.3227 371.803 67.3697 373.7 68.4172C376.228 69.8127 378.757 71.2093 381.183 72.4673C385.438 74.6739 389.471 76.5083 392.805 77.2449C395.744 77.8943 398.206 77.7153 399.884 76.0937L399.893 76.0849C415.028 60.6814 436.488 59.1104 456.284 64.4065L456.286 64.4068C462.762 66.1207 469.662 68.7747 476.603 75.1689L476.613 75.1785L476.624 75.1876C476.732 75.2764 476.855 75.3863 476.988 75.5064L476.992 75.5097C477.115 75.6206 477.248 75.7404 477.372 75.843C486.539 84.5426 492.919 97.0363 496.278 109.224C499.643 121.433 499.949 133.232 497.083 140.534L497.083 140.535C494.188 147.932 489.284 152.754 484.045 157.301C483.277 157.968 482.5 158.629 481.722 159.292C477.209 163.137 472.627 167.041 469.148 172.389L469.146 172.392C467.051 175.669 465.336 179.171 463.949 182.814L463.948 182.817C460.294 192.597 459.025 203.512 458.678 214.36C458.452 221.421 458.618 228.487 458.775 235.198C458.859 238.784 458.94 242.268 458.959 245.597L458.959 245.598C458.982 248.869 459.122 252.564 459.273 256.537C459.624 265.772 460.032 276.509 459.161 286.91C457.914 301.789 454.056 315.763 443.824 323.486C434.857 330.234 422.303 329.672 411.551 326.799Z" stroke="url(#paint13_linear_193_7757)" stroke-miterlimit="10"/>
<path d="M413.679 334.245L413.679 334.244C405.467 332.04 397.62 328.834 389.745 325.544C389.226 325.327 388.706 325.11 388.187 324.892C380.834 321.816 373.435 318.72 365.71 316.379L365.708 316.379C357.373 313.892 350.031 313.058 343.159 313.409L343.157 313.409C327.226 314.276 314.127 321.953 298.442 332.38L298.442 332.38C281.667 343.556 265.021 344.281 250.008 338.802C234.971 333.315 221.542 321.591 211.286 307.824C203.557 297.44 196.562 286.306 191.639 274.292C190.576 271.688 189.399 268.883 188.154 265.917C182.666 252.84 175.868 236.642 171.806 220.821C169.315 211.12 167.861 201.592 168.362 193.041C168.863 184.493 171.314 176.95 176.603 171.172L176.604 171.172C177.582 170.102 179.033 169.362 180.896 168.897C182.757 168.431 184.996 168.248 187.506 168.265C192.531 168.299 198.556 169.133 204.67 170.03C205.153 170.1 205.636 170.171 206.119 170.242C211.74 171.07 217.371 171.899 222.24 172.135C224.886 172.264 227.327 172.219 229.433 171.898C231.536 171.579 233.343 170.979 234.689 169.971L234.69 169.97C241.357 164.957 247.417 159.514 253.408 154.133C256.317 151.52 259.21 148.922 262.147 146.395C271.154 138.648 280.63 131.524 292.443 126.518L292.444 126.518C306.552 120.529 314.273 105.755 321.292 90.2031C322.122 88.3628 322.943 86.5113 323.763 84.6604C326.422 78.6617 329.078 72.6704 332.054 67.0925C335.946 59.7983 340.364 53.2562 346 48.3896C347.731 46.914 350.593 46.952 354.357 48.1086C358.082 49.2535 362.498 51.434 367.145 53.9433C369.127 55.0133 371.157 56.1468 373.188 57.2811C375.892 58.791 378.599 60.3021 381.196 61.6663C385.752 64.0596 390.068 66.0543 393.632 66.8781L393.637 66.8791C396.692 67.5541 399.451 67.4508 401.176 65.6753C417.424 49.1643 440.373 47.4949 461.506 53.2278L461.51 53.2288C468.396 55.0332 475.758 57.8597 483.223 64.7238C483.371 64.8665 483.506 64.988 483.635 65.1038L483.637 65.1057C483.769 65.2241 483.894 65.3367 484.03 65.4685L484.033 65.4707C493.832 74.808 500.698 88.1984 504.329 101.253C507.964 114.324 508.328 126.954 505.245 134.776L505.244 134.777C502.13 142.695 496.861 147.847 491.249 152.713C490.464 153.393 489.673 154.068 488.879 154.744C484.011 158.894 479.073 163.104 475.355 168.911L475.353 168.915C473.098 172.508 471.257 176.195 469.794 180.11C465.864 190.614 464.504 202.31 464.145 213.921C463.908 221.578 464.106 229.229 464.294 236.483C464.39 240.217 464.484 243.847 464.515 247.317L464.515 247.318C464.551 250.78 464.711 254.689 464.882 258.893C465.287 268.813 465.759 280.374 464.835 291.567C463.519 307.507 459.379 322.487 448.342 330.745L448.341 330.745C438.636 338.042 425.17 337.351 413.679 334.245ZM448.64 331.137C467.737 316.85 466.352 282.898 465.371 258.844C465.2 254.65 465.041 250.756 465.005 247.321C464.975 243.833 464.88 240.196 464.784 236.457C464.311 218.229 463.776 197.6 470.254 180.288L448.64 331.137Z" stroke="url(#paint14_linear_193_7757)" stroke-miterlimit="10"/>
<path d="M470.092 249.254L470.092 249.256C470.133 252.893 470.302 257.002 470.484 261.422C470.919 272.006 471.427 284.379 470.434 296.359C469.025 313.347 464.605 329.333 452.83 338.14C442.512 345.802 428.182 345.063 415.815 341.692C407.071 339.299 398.724 335.858 390.361 332.38L389.722 332.114C381.58 328.728 373.413 325.33 364.888 322.889C356.093 320.23 348.338 319.305 341.014 319.699L341.013 319.699C324.183 320.653 310.247 328.713 293.559 339.846C275.627 351.765 257.861 352.51 241.852 346.643C225.82 340.767 211.518 328.245 200.599 313.583L200.599 313.583C192.332 302.51 184.888 290.637 179.69 277.78L179.69 277.78C178.482 274.797 177.131 271.569 175.699 268.147C169.902 254.298 162.784 237.29 158.481 220.672C155.8 210.314 154.221 200.14 154.733 191.005C155.244 181.874 157.841 173.811 163.481 167.63L163.482 167.629C164.518 166.484 166.061 165.697 168.044 165.204C170.026 164.711 172.411 164.521 175.088 164.547C180.445 164.597 186.876 165.505 193.402 166.479C193.91 166.555 194.418 166.631 194.926 166.707C200.935 167.607 206.954 168.509 212.158 168.774C214.981 168.918 217.584 168.876 219.829 168.539C222.07 168.202 223.991 167.567 225.419 166.495L225.42 166.495C232.528 161.145 238.981 155.329 245.362 149.577C248.456 146.789 251.533 144.016 254.659 141.318C264.252 133.041 274.356 125.434 286.989 120.109C302.032 113.792 310.194 98.0251 317.603 81.4032C318.483 79.4299 319.352 77.4442 320.221 75.4591C323.024 69.0533 325.825 62.6535 328.971 56.6963C333.089 48.8973 337.775 41.9027 343.777 36.7077L343.777 36.7075C345.613 35.1166 348.653 35.1689 352.647 36.4243C356.602 37.6672 361.294 40.0262 366.236 42.7387C368.31 43.8775 370.435 45.0817 372.562 46.2877C375.475 47.9388 378.393 49.5932 381.197 51.0869C386.054 53.6737 390.659 55.8302 394.476 56.7289C397.793 57.6053 400.626 57.4421 402.522 55.5736L402.527 55.5686C419.888 37.9498 444.288 36.3135 466.8 42.3509C474.153 44.3293 481.98 47.3301 489.971 54.6692L489.982 54.6786L489.992 54.6874C490.211 54.8668 490.482 55.128 490.775 55.4102L490.776 55.4117C501.202 65.3859 508.527 79.6795 512.406 93.6086C516.29 107.554 516.691 121.029 513.388 129.372L513.388 129.374C510.079 137.855 504.478 143.343 498.505 148.52C497.659 149.254 496.805 149.982 495.948 150.711C490.776 155.117 485.526 159.589 481.549 165.78C479.113 169.485 477.197 173.444 475.66 177.623C471.474 188.783 470.044 201.248 469.678 213.633C469.441 221.662 469.651 229.691 469.85 237.313C469.958 241.434 470.063 245.435 470.092 249.254ZM372.812 45.8706C360.622 38.9595 348.412 32.0372 343.452 36.3363L466.921 41.879C444.314 35.816 419.704 37.4338 402.175 55.2231C400.462 56.9111 397.85 57.1178 394.588 56.2547C388.675 54.8641 380.747 50.3697 372.812 45.8706Z" stroke="url(#paint15_linear_193_7757)" stroke-miterlimit="10"/>
<path d="M189.65 318.927L189.258 319.215L189.65 318.927C180.846 307.167 172.901 294.471 167.29 280.738C165.989 277.522 164.526 274.031 162.973 270.324C156.839 255.683 149.299 237.685 144.718 220.088C141.848 209.065 140.148 198.232 140.676 188.508C141.204 178.789 143.955 170.209 149.958 163.645L149.959 163.644C151.058 162.434 152.7 161.606 154.811 161.092C156.92 160.578 159.461 160.387 162.312 160.424C168.016 160.497 174.869 161.481 181.822 162.531C182.335 162.608 182.848 162.686 183.361 162.764C189.792 163.738 196.235 164.715 201.799 165.006C204.805 165.163 207.573 165.122 209.959 164.767C212.34 164.413 214.377 163.74 215.887 162.607L215.888 162.606C223.397 156.949 230.225 150.799 236.982 144.714C240.307 141.719 243.615 138.74 246.978 135.843C257.191 127.044 267.958 118.96 281.41 113.317C297.362 106.63 305.987 89.8595 313.805 72.1702C314.739 70.0574 315.662 67.9312 316.584 65.8056C319.534 59.0027 322.482 52.207 325.793 45.8838C330.137 37.589 335.084 30.1537 341.43 24.6433L341.43 24.643C342.61 23.616 344.266 23.2361 346.365 23.4109C348.467 23.5858 350.954 24.3129 353.719 25.4289C359.195 27.6392 365.63 31.3202 372.097 35.0189L372.287 35.1278C378.797 38.8513 385.331 42.5791 390.855 44.7529C393.618 45.8397 396.163 46.553 398.351 46.6706C400.545 46.7886 402.433 46.3086 403.793 44.9452L403.794 44.9442C422.231 26.3506 448.121 24.6156 471.97 31.0903L471.973 31.0909C479.735 33.1595 488.076 36.4153 496.594 44.2278L496.595 44.2283C508.015 54.6709 516.02 69.984 520.277 84.9758C524.538 99.9837 525.013 114.561 521.497 123.534C517.97 132.537 512.015 138.374 505.676 143.881C504.784 144.656 503.884 145.424 502.982 146.194C497.488 150.886 491.917 155.643 487.703 162.221C479.561 174.893 476.49 190.237 475.479 205.814C474.766 216.803 475.077 227.953 475.369 238.383C475.49 242.726 475.608 246.944 475.646 250.974L475.646 250.975C475.693 254.823 475.876 259.178 476.074 263.869C476.547 275.102 477.1 288.263 476.055 301.004C474.572 319.072 469.882 336.084 457.344 345.399C446.289 353.61 431.046 352.742 417.941 349.137L417.821 349.597L417.941 349.137C408.691 346.597 399.855 342.941 391.003 339.222C390.599 339.052 390.195 338.882 389.791 338.713C381.35 335.163 372.875 331.6 364.038 328.966L364.038 328.965C348.624 324.379 336.097 324.586 324.225 328.088C312.374 331.585 301.204 338.359 288.501 346.848C269.437 359.548 250.553 360.314 233.53 354.054C216.484 347.785 201.275 334.458 189.65 318.927Z" stroke="url(#paint16_linear_193_7757)" stroke-miterlimit="10"/>
</g>
<defs>
<linearGradient id="paint0_linear_193_7757" x1="361.238" y1="228.298" x2="395.769" y2="216.151" gradientUnits="userSpaceOnUse">
<stop stop-color="#96283A"/>
<stop offset="1" stop-color="#560C1E"/>
</linearGradient>
<linearGradient id="paint1_linear_193_7757" x1="347.811" y1="229.816" x2="404.622" y2="207.405" gradientUnits="userSpaceOnUse">
<stop stop-color="#96283A"/>
<stop offset="1" stop-color="#560C1E"/>
</linearGradient>
<linearGradient id="paint2_linear_193_7757" x1="334.117" y1="230.696" x2="413.073" y2="198.029" gradientUnits="userSpaceOnUse">
<stop stop-color="#96283A"/>
<stop offset="1" stop-color="#560C1E"/>
</linearGradient>
<linearGradient id="paint3_linear_193_7757" x1="320.482" y1="231.644" x2="421.668" y2="188.831" gradientUnits="userSpaceOnUse">
<stop stop-color="#96283A"/>
<stop offset="1" stop-color="#560C1E"/>
</linearGradient>
<linearGradient id="paint4_linear_193_7757" x1="306.626" y1="232.632" x2="430.154" y2="179.681" gradientUnits="userSpaceOnUse">
<stop stop-color="#96283A"/>
<stop offset="1" stop-color="#560C1E"/>
</linearGradient>
<linearGradient id="paint5_linear_193_7757" x1="292.99" y1="233.506" x2="438.598" y2="170.495" gradientUnits="userSpaceOnUse">
<stop stop-color="#96283A"/>
<stop offset="1" stop-color="#560C1E"/>
</linearGradient>
<linearGradient id="paint6_linear_193_7757" x1="279.517" y1="234.296" x2="447.182" y2="161.247" gradientUnits="userSpaceOnUse">
<stop stop-color="#96283A"/>
<stop offset="1" stop-color="#560C1E"/>
</linearGradient>
<linearGradient id="paint7_linear_193_7757" x1="265.558" y1="235.351" x2="455.691" y2="152.178" gradientUnits="userSpaceOnUse">
<stop stop-color="#96283A"/>
<stop offset="1" stop-color="#560C1E"/>
</linearGradient>
<linearGradient id="paint8_linear_193_7757" x1="251.912" y1="236.204" x2="464.078" y2="143.036" gradientUnits="userSpaceOnUse">
<stop stop-color="#96283A"/>
<stop offset="1" stop-color="#560C1E"/>
</linearGradient>
<linearGradient id="paint9_linear_193_7757" x1="238.298" y1="237.136" x2="472.578" y2="133.972" gradientUnits="userSpaceOnUse">
<stop stop-color="#96283A"/>
<stop offset="1" stop-color="#560C1E"/>
</linearGradient>
<linearGradient id="paint10_linear_193_7757" x1="224.587" y1="238.142" x2="481.347" y2="124.866" gradientUnits="userSpaceOnUse">
<stop stop-color="#96283A"/>
<stop offset="1" stop-color="#560C1E"/>
</linearGradient>
<linearGradient id="paint11_linear_193_7757" x1="210.834" y1="238.932" x2="489.724" y2="115.587" gradientUnits="userSpaceOnUse">
<stop stop-color="#96283A"/>
<stop offset="1" stop-color="#560C1E"/>
</linearGradient>
<linearGradient id="paint12_linear_193_7757" x1="197.035" y1="239.98" x2="498.307" y2="106.57" gradientUnits="userSpaceOnUse">
<stop stop-color="#96283A"/>
<stop offset="1" stop-color="#560C1E"/>
</linearGradient>
<linearGradient id="paint13_linear_193_7757" x1="183.182" y1="240.906" x2="506.648" y2="97.4328" gradientUnits="userSpaceOnUse">
<stop stop-color="#96283A"/>
<stop offset="1" stop-color="#560C1E"/>
</linearGradient>
<linearGradient id="paint14_linear_193_7757" x1="169.541" y1="241.768" x2="515.163" y2="88.2776" gradientUnits="userSpaceOnUse">
<stop stop-color="#96283A"/>
<stop offset="1" stop-color="#560C1E"/>
</linearGradient>
<linearGradient id="paint15_linear_193_7757" x1="155.913" y1="242.814" x2="523.673" y2="79.3322" gradientUnits="userSpaceOnUse">
<stop stop-color="#96283A"/>
<stop offset="1" stop-color="#560C1E"/>
</linearGradient>
<linearGradient id="paint16_linear_193_7757" x1="142.106" y1="243.605" x2="532.181" y2="70.0262" gradientUnits="userSpaceOnUse">
<stop stop-color="#96283A"/>
<stop offset="1" stop-color="#560C1E"/>
</linearGradient>
<clipPath id="clip0_193_7757">
<rect width="375" height="375" fill="white"/>
</clipPath>
</defs>
</svg>
