<svg width="10" height="10" viewBox="0 0 10 10" fill="none" xmlns="http://www.w3.org/2000/svg">
<g clip-path="url(#clip0_488_14948)">
<rect width="10" height="10" rx="5" fill="white"/>
<g clip-path="url(#clip1_488_14948)">
<circle cx="4.99992" cy="4.99998" r="3.91667" stroke="#202020" stroke-width="0.5"/>
<path d="M3.74984 1.87498V1.45831H3.12484L2.2915 2.29165L3.33317 2.49998L3.74984 1.87498Z" fill="#202020"/>
<path d="M6.24984 2.49998V1.45831L7.49984 1.87498L8.33317 2.91665L7.49984 3.33331L6.24984 2.49998Z" fill="#202020"/>
<path d="M7.9165 6.45831L7.08317 5.20831C6.59706 5.41665 5.4165 5.83331 5.4165 5.83331L5.62484 7.29165L6.87484 7.70831L7.9165 6.45831Z" fill="#202020"/>
<path d="M4.58317 4.79167L4.7915 3.54167L3.12484 3.125L2.2915 4.79167L3.12484 5.625L4.58317 4.79167Z" fill="#202020"/>
<path d="M4.16659 7.91665C3.74992 7.63887 2.87492 7.08331 2.70825 7.08331L2.08325 7.70831L2.91659 8.33331L4.16659 8.74998V7.91665Z" fill="#202020"/>
</g>
</g>
<defs>
<clipPath id="clip0_488_14948">
<rect width="10" height="10" rx="5" fill="white"/>
</clipPath>
<clipPath id="clip1_488_14948">
<rect width="10" height="10" fill="white"/>
</clipPath>
</defs>
</svg>
