<svg width="14" height="13" viewBox="0 0 14 13" fill="none" xmlns="http://www.w3.org/2000/svg">
<g clip-path="url(#clip0_1151_7399)">
<circle cx="7.00009" cy="6.5" r="4.87101" stroke="#F1F1F1" stroke-width="0.789894"/>
<path d="M5.42023 2.55052V2.02393H4.63034L3.57715 3.07712L4.89364 3.34042L5.42023 2.55052Z" fill="#F1F1F1"/>
<path d="M8.57981 3.34042V2.02393L10.1596 2.55052L11.2128 3.86701L10.1596 4.39361L8.57981 3.34042Z" fill="#F1F1F1"/>
<path d="M10.6862 8.34308L9.63299 6.76329C9.01863 7.02659 7.52661 7.55318 7.52661 7.55318L7.78991 9.39627L9.3697 9.92286L10.6862 8.34308Z" fill="#F1F1F1"/>
<path d="M6.47342 6.23669L6.73672 4.65691L4.63034 4.13031L3.57715 6.23669L4.63034 7.28988L6.47342 6.23669Z" fill="#F1F1F1"/>
<path d="M5.94694 10.1862C5.42035 9.83511 4.3145 9.13298 4.10386 9.13298L3.31396 9.92287L4.36716 10.7128L5.94694 11.2394V10.1862Z" fill="#F1F1F1"/>
</g>
<defs>
<clipPath id="clip0_1151_7399">
<rect width="12.6383" height="12.6383" fill="white" transform="translate(0.680908 0.180847)"/>
</clipPath>
</defs>
</svg>
