<svg width="286" height="277" viewBox="0 0 286 277" fill="none" xmlns="http://www.w3.org/2000/svg">
<path fill-rule="evenodd" clip-rule="evenodd" d="M163.165 0.26564V1.26564V11L284 11H286V13V275V275.547V277V277.547L181.63 277.547C181.491 300.157 164.66 318.44 143.917 318.44C123.174 318.44 106.343 300.157 106.204 277.547H0V275.547L1.99394e-05 275L3.04374e-05 13L3.05176e-05 11H2.00003L109.917 11H111.917H124.668V1.26564L124.668 0.26564H125.668H162.165H163.165ZM146.956 275C146.441 273.252 145.051 272 143.417 272C141.783 272 140.393 273.252 139.878 275H108.262C109.335 254.271 125.037 238.092 143.917 238.092C162.797 238.092 178.499 254.271 179.572 275H146.956ZM108.204 277.547C108.342 299.219 124.439 316.44 143.917 316.44C163.395 316.44 179.492 299.219 179.63 277.547H147.067C146.674 279.527 145.189 281 143.417 281C141.645 281 140.16 279.527 139.767 277.547H108.204ZM284 275H181.574C180.497 253.314 164.049 236.092 143.917 236.092C123.785 236.092 107.337 253.314 106.26 275H2.00002L2.00003 13L69.5834 13V83V84H70.5834H124.134C127.461 89.8944 134.911 94 143.567 94C152.224 94 159.674 89.8944 163.001 84H216.333H217.333V83V13L284 13V275ZM161.165 2.26564V11H126.668V2.26564L161.165 2.26564ZM143.567 92C135.924 92 129.665 88.6453 126.506 84L160.629 84C157.469 88.6453 151.211 92 143.567 92ZM215.333 13L177.917 13V37V38H176.917L110.917 38H109.917V37V13L71.5834 13V82L215.333 82V13ZM175.917 36V13L111.917 13V36L175.917 36ZM236.403 451.234V452.234V542.481L234.403 542.481V453.234H53.4314L53.4314 542.481H51.4314L51.4314 452.234V451.234H52.4314H119.56C123.768 443.884 133.092 438.773 143.917 438.773C154.743 438.773 164.066 443.884 168.274 451.234H235.403H236.403ZM165.906 451.234C161.865 445.137 153.736 440.773 143.917 440.773C134.098 440.773 125.969 445.137 121.928 451.234H165.906ZM186.523 510.498V509.498H185.523H102.31H101.31V510.498V542.64H103.31V511.498H184.523V542.64H186.523V510.498ZM163.165 552.734V553.734H162.165H125.668H124.668L124.668 552.734V542.109H126.668V551.734H161.165V542.109H163.165V552.734Z" fill="white" fill-opacity="0.24"/>
</svg>
