<svg width="23" height="12" viewBox="0 0 23 12" fill="none" xmlns="http://www.w3.org/2000/svg">
<g clip-path="url(#clip0_488_20707)">
<rect width="23" height="12" rx="1" fill="#BD223B"/>
<path d="M10.704 7.8C10.848 7.8 10.96 7.728 11.056 7.592C11.192 7.384 11.28 6.928 11.32 6.224L10.688 5.912C10.688 6.168 10.672 6.408 10.648 6.624C10.616 6.848 10.576 6.968 10.536 6.968C10.504 6.968 10.464 6.896 10.416 6.752C10.304 6.432 10.256 5.856 10.256 5.016V3.384H8.624V2.424H7.808V3.384H6.992V4.2H7.808C7.792 4.544 7.76 4.872 7.704 5.176C7.552 5.08 7.392 4.984 7.232 4.888L6.792 5.544C7.016 5.672 7.24 5.816 7.464 5.984C7.232 6.536 6.888 6.984 6.424 7.328L7.04 7.88C7.504 7.52 7.872 7.064 8.136 6.512C8.392 6.728 8.648 6.976 8.904 7.248L9.376 6.528C9.072 6.224 8.76 5.952 8.432 5.696C8.544 5.248 8.608 4.744 8.624 4.2H9.44V5.016C9.44 6.248 9.616 7.064 9.96 7.448C10.152 7.672 10.4 7.792 10.704 7.8ZM4.008 3.344V4.16H5.048V5.32C4.64 5.408 4.224 5.48 3.8 5.536L4 6.312C4.352 6.248 4.696 6.176 5.048 6.104V6.784C5.048 6.968 4.968 7.064 4.824 7.064C4.616 7.064 4.392 7.04 4.16 7.008L4.352 7.808H5.12C5.632 7.808 5.888 7.536 5.888 6.992V5.904C6.16 5.832 6.432 5.76 6.704 5.68V4.88L5.888 5.12V4.16H6.768V3.344H5.888V2.432H5.048V3.344H4.008ZM4.8 7.976C4.528 8.528 4.2 9 3.832 9.392L4.52 9.896C4.888 9.456 5.216 8.928 5.496 8.312L4.8 7.976ZM6.808 8.208L6.024 8.368C6.168 8.8 6.296 9.296 6.392 9.864L7.232 9.664C7.104 9.144 6.968 8.656 6.808 8.208ZM8.464 8.096L7.68 8.264C7.904 8.72 8.088 9.248 8.232 9.848L9.064 9.648C8.888 9.088 8.688 8.576 8.464 8.096ZM9.984 7.84L9.304 8.264C9.76 8.856 10.12 9.392 10.384 9.872L11.08 9.384C10.824 8.944 10.464 8.432 9.984 7.84ZM17.824 9.768C18.456 9.768 18.776 9.448 18.776 8.816V2.76H14.984V3.528H17.96V8.584C17.96 8.864 17.856 9.008 17.656 9.008L16.96 8.984L17.184 9.768H17.824ZM12.12 3.76V9.84H12.936V3.76H12.12ZM13.536 2.344L12.776 2.688C13.128 3.112 13.456 3.6 13.752 4.16L14.504 3.768C14.224 3.248 13.904 2.776 13.536 2.344Z" fill="black"/>
</g>
<defs>
<clipPath id="clip0_488_20707">
<rect width="23" height="12" rx="1" fill="white"/>
</clipPath>
</defs>
</svg>
