<svg width="87" height="24" viewBox="0 0 87 24" fill="none" xmlns="http://www.w3.org/2000/svg">
<path d="M47.8959 18.3653H38.7474L37.338 21.3428L35.741 18.8765L42.0479 5.79343L43.2845 8.50771C43.067 9.04202 42.8568 9.55517 42.654 10.0471C42.4398 10.5513 42.2172 11.0554 41.9864 11.5595L39.9095 15.9077H46.7338L47.8959 18.3653Z" fill="white"/>
<path fill-rule="evenodd" clip-rule="evenodd" d="M20.0255 10.353V22.1614H22.6767V16.0819V13.6501V12.0483L20.0255 10.353Z" fill="white"/>
<path d="M33.5269 13.8839C34.247 12.9954 34.607 11.9977 34.607 10.8909C34.607 9.89329 34.3451 9.01255 33.8215 8.24872C33.2978 7.48489 32.6186 6.88474 31.784 6.44826C30.9493 6.01179 30.0492 5.79355 29.0837 5.79355H20.0255V8.22534H28.4454C29.0509 8.22534 29.6074 8.34225 30.1147 8.57607C30.6384 8.79431 31.0475 9.10608 31.3421 9.51138C31.653 9.91668 31.8085 10.3765 31.8085 10.8909C31.8085 11.3742 31.6694 11.8263 31.3912 12.2471C31.1293 12.668 30.7611 13.011 30.2865 13.276C29.8119 13.5254 29.28 13.6501 28.6909 13.6501H22.6767V16.0819H27.8317L32.2013 22.1614L35.4907 22.1847L30.8266 15.7545C31.9231 15.3804 32.8232 14.7569 33.5269 13.8839Z" fill="white"/>
<path fill-rule="evenodd" clip-rule="evenodd" d="M10.5446 5.79355C12.5412 5.79355 14.0386 6.14429 15.0369 6.84576C16.0516 7.54724 16.5589 8.56828 16.5589 9.90888C16.5589 10.6415 16.3461 11.304 15.9206 11.8964C15.4951 12.4732 14.8733 12.9174 14.055 13.2292C14.6605 13.4163 15.2169 13.6813 15.7243 14.0242C16.2479 14.3672 16.6653 14.8114 16.9762 15.357C17.3035 15.9026 17.4672 16.5651 17.4672 17.3445C17.4672 18.2954 17.2708 19.0826 16.878 19.7062C16.5016 20.3297 16.0025 20.8207 15.3806 21.1793C14.7587 21.5378 14.0713 21.795 13.3185 21.9509C12.5657 22.0912 11.8129 22.1614 11.0601 22.1614H4.62849L1.97729 20.4075V10.9961V10.3706L4.62849 12.1067V12.481V14.9361V19.7296H11.0601C12.1402 19.7296 13.024 19.5347 13.7113 19.145C14.415 18.7397 14.7669 18.124 14.7669 17.2978C14.7669 16.6898 14.5705 16.2144 14.1777 15.8714C13.7849 15.5285 13.294 15.2869 12.7048 15.1466C12.1157 15.0063 11.5265 14.9361 10.9374 14.9361H7.37949V12.481H10.8146C11.6165 12.4654 12.3202 12.2783 12.9258 11.9198C13.5477 11.5457 13.8586 11.0157 13.8586 10.3298C13.8586 9.56594 13.5313 9.02814 12.8767 8.71637C12.2384 8.38901 11.4529 8.22534 10.52 8.22534H1.97729V5.79355H10.5446Z" fill="white"/>
<path d="M1.97729 20.4075V22.1614H4.62849L1.97729 20.4075Z" fill="white"/>
<path fill-rule="evenodd" clip-rule="evenodd" d="M63.9095 16.0818L70.8553 1H68.1542L61.2532 16.0818H63.9095ZM52.0576 22.1612H54.7715L47.2333 5.79343H44.495L52.0576 22.1612ZM58.3806 22.1612H61.0331L53.5437 5.79343H50.8426L58.3806 22.1612Z" fill="url(#paint0_linear_30_8654)"/>
<path fill-rule="evenodd" clip-rule="evenodd" d="M83.9149 17.2054C84.294 16.2052 84.4835 15.1291 84.4835 13.9773C84.4835 12.8255 84.294 11.7571 83.9149 10.772C83.5358 9.77171 82.9999 8.90028 82.3071 8.15767C81.6144 7.41505 80.7974 6.83915 79.8563 6.42995C78.9151 6.0056 77.876 5.79343 76.7388 5.79343C75.6146 5.79343 74.5755 6.0056 73.6213 6.42995C72.6801 6.83915 71.8632 7.41505 71.1704 8.15767C70.4907 8.90028 69.9613 9.77171 69.5822 10.772C69.2031 11.7571 69.0136 12.8255 69.0136 13.9773C69.0136 15.1291 69.2031 16.2052 69.5822 17.2054C69.9613 18.1905 70.4907 19.0544 71.1704 19.797C71.8632 20.5396 72.6801 21.1231 73.6213 21.5474C74.5755 21.9566 75.6146 22.1612 76.7388 22.1612C77.876 22.1612 78.9151 21.9566 79.8563 21.5474C80.7974 21.1231 81.6144 20.5396 82.3071 19.797C82.9999 19.0544 83.5358 18.1905 83.9149 17.2054ZM81.4124 16.237C81.6591 15.5368 81.7824 14.7836 81.7824 13.9773C81.7824 13.1711 81.6591 12.4231 81.4124 11.7336C81.1657 11.0334 80.8169 10.4234 80.3661 9.90357C79.9152 9.38374 79.3835 8.9806 78.771 8.69417C78.1586 8.39712 77.4823 8.2486 76.7422 8.2486C76.0106 8.2486 75.3343 8.39712 74.7133 8.69417C74.1008 8.9806 73.5692 9.38374 73.1183 9.90357C72.676 10.4234 72.3314 11.0334 72.0848 11.7336C71.8381 12.4231 71.7147 13.1711 71.7147 13.9773C71.7147 14.7836 71.8381 15.5368 72.0848 16.237C72.3314 16.9266 72.676 17.5313 73.1183 18.0511C73.5692 18.5709 74.1008 18.9794 74.7133 19.2764C75.3343 19.5628 76.0106 19.7061 76.7422 19.7061C77.4823 19.7061 78.1586 19.5628 78.771 19.2764C79.3835 18.9794 79.9152 18.5709 80.3661 18.0511C80.8169 17.5313 81.1657 16.9266 81.4124 16.237Z" fill="white"/>
<defs>
<linearGradient id="paint0_linear_30_8654" x1="43.6995" y1="1.88684" x2="61.1016" y2="18.5458" gradientUnits="userSpaceOnUse">
<stop stop-color="#A108A8"/>
<stop offset="0.447917" stop-color="#E7292D"/>
<stop offset="1" stop-color="#FAA51A"/>
</linearGradient>
</defs>
</svg>
