<svg width="16" height="16" viewBox="0 0 16 16" fill="none" xmlns="http://www.w3.org/2000/svg">
<g clip-path="url(#clip0_929_842)">
<circle cx="7.99992" cy="8.00004" r="6.16667" stroke="#F50707"/>
<path d="M5.99984 3.00004V2.33337H4.99984L3.6665 3.66671L5.33317 4.00004L5.99984 3.00004Z" fill="#F50707"/>
<path d="M9.99984 4.00004V2.33337L11.9998 3.00004L13.3332 4.66671L11.9998 5.33337L9.99984 4.00004Z" fill="#F50707"/>
<path d="M12.6665 10.3334L11.3332 8.33337C10.5554 8.66671 8.6665 9.33337 8.6665 9.33337L8.99984 11.6667L10.9998 12.3334L12.6665 10.3334Z" fill="#F50707"/>
<path d="M7.33317 7.66667L7.6665 5.66667L4.99984 5L3.6665 7.66667L4.99984 9L7.33317 7.66667Z" fill="#F50707"/>
<path d="M6.66658 12.6667C5.99992 12.2223 4.59992 11.3334 4.33325 11.3334L3.33325 12.3334L4.66659 13.3334L6.66658 14V12.6667Z" fill="#F50707"/>
</g>
<defs>
<clipPath id="clip0_929_842">
<rect width="16" height="16" fill="white"/>
</clipPath>
</defs>
</svg>
