<svg width="16" height="16" viewBox="0 0 16 16" fill="none" xmlns="http://www.w3.org/2000/svg">
<g clip-path="url(#clip0_929_1630)">
<circle cx="7.99992" cy="9.72196" r="4.16667" stroke="#F50707"/>
<path d="M6.59989 6.22179V5.75513H5.89989L4.96655 6.68846L6.13322 6.92179L6.59989 6.22179Z" fill="#F50707"/>
<path d="M9.39989 6.92179V5.75513L10.7999 6.22179L11.7332 7.38846L10.7999 7.85513L9.39989 6.92179Z" fill="#F50707"/>
<path d="M11.2666 11.3557L10.3332 9.95569C9.78877 10.189 8.46655 10.6557 8.46655 10.6557L8.69989 12.289L10.0999 12.7557L11.2666 11.3557Z" fill="#F50707"/>
<path d="M7.53322 9.48862L7.76655 8.08862L5.89989 7.62195L4.96655 9.48862L5.89989 10.4219L7.53322 9.48862Z" fill="#F50707"/>
<path d="M7.06673 12.9886C6.60006 12.6775 5.62006 12.0553 5.4334 12.0553L4.7334 12.7553L5.66673 13.4553L7.06673 13.922V12.9886Z" fill="#F50707"/>
<path d="M1.66675 8.66671V2.33337H14.3334V8.66671" stroke="#F50707"/>
</g>
<defs>
<clipPath id="clip0_929_1630">
<rect width="16" height="16" fill="white"/>
</clipPath>
</defs>
</svg>
