<svg width="16" height="16" viewBox="0 0 16 16" fill="none" xmlns="http://www.w3.org/2000/svg">
<path d="M8 11.25C9.38071 11.25 10.5 10.1307 10.5 8.75C10.5 7.36929 9.38071 6.25 8 6.25C6.61929 6.25 5.5 7.36929 5.5 8.75C5.5 10.1307 6.61929 11.25 8 11.25Z" stroke="white" stroke-width="0.5" stroke-linecap="round" stroke-linejoin="round"/>
<path d="M12.25 7.25001C12.8323 7.24903 13.4069 7.38415 13.9277 7.64458C14.4486 7.90501 14.9014 8.28355 15.25 8.75001" stroke="white" stroke-width="0.5" stroke-linecap="round" stroke-linejoin="round"/>
<path d="M0.75 8.75001C1.09862 8.28355 1.55142 7.90501 2.07229 7.64458C2.59315 7.38415 3.16766 7.24903 3.75 7.25001" stroke="white" stroke-width="0.5" stroke-linecap="round" stroke-linejoin="round"/>
<path d="M4.40002 13.4999C4.72929 12.8255 5.24133 12.2573 5.8778 11.8597C6.51428 11.4622 7.24961 11.2515 8.00002 11.2515C8.75044 11.2515 9.48577 11.4622 10.1222 11.8597C10.7587 12.2573 11.2708 12.8255 11.6 13.4999" stroke="white" stroke-width="0.5" stroke-linecap="round" stroke-linejoin="round"/>
<path d="M3.74995 7.25C3.37036 7.25038 2.99849 7.14273 2.6778 6.93962C2.35711 6.73651 2.10084 6.44633 1.93895 6.10299C1.77705 5.75965 1.71621 5.37732 1.76353 5.00068C1.81085 4.62404 1.96438 4.26865 2.20618 3.97603C2.44797 3.6834 2.76806 3.46564 3.12902 3.34817C3.48999 3.2307 3.87693 3.21839 4.24464 3.31266C4.61234 3.40694 4.94563 3.60391 5.20554 3.88057C5.46546 4.15722 5.64128 4.50213 5.71246 4.875" stroke="white" stroke-width="0.5" stroke-linecap="round" stroke-linejoin="round"/>
<path d="M10.2875 4.875C10.3587 4.50213 10.5345 4.15722 10.7944 3.88057C11.0543 3.60391 11.3876 3.40694 11.7553 3.31266C12.123 3.21839 12.5099 3.2307 12.8709 3.34817C13.2319 3.46564 13.552 3.6834 13.7938 3.97603C14.0356 4.26865 14.1891 4.62404 14.2364 5.00068C14.2837 5.37732 14.2229 5.75965 14.061 6.10299C13.8991 6.44633 13.6428 6.73651 13.3221 6.93962C13.0014 7.14273 12.6296 7.25038 12.25 7.25" stroke="white" stroke-width="0.5" stroke-linecap="round" stroke-linejoin="round"/>
</svg>
