<svg width="16" height="16" viewBox="0 0 16 16" fill="none" xmlns="http://www.w3.org/2000/svg">
<path d="M6.5 8H13.4999" stroke="white" stroke-linecap="round" stroke-linejoin="round"/>
<path d="M6.5 4H13.4999" stroke="white" stroke-linecap="round" stroke-linejoin="round"/>
<path d="M6.49994 12H13.4999" stroke="white" stroke-linecap="round" stroke-linejoin="round"/>
<path d="M2.5 3.75L3.5 3.25V6.74962" stroke="white" stroke-linecap="round" stroke-linejoin="round"/>
<path d="M2.56876 9.53436C2.61627 9.42195 2.68677 9.32072 2.77573 9.23717C2.86468 9.15361 2.97013 9.08959 3.0853 9.04921C3.20047 9.00883 3.32281 8.99298 3.44447 9.00269C3.56612 9.0124 3.6844 9.04744 3.79171 9.10557C3.89902 9.1637 3.99298 9.24364 4.06756 9.34024C4.14215 9.43684 4.1957 9.54797 4.22479 9.66649C4.25387 9.78502 4.25785 9.90832 4.23645 10.0285C4.21506 10.1486 4.16877 10.263 4.10056 10.3642L2.5 12.5H4.25" stroke="white" stroke-linecap="round" stroke-linejoin="round"/>
</svg>
