<svg width="16" height="16" viewBox="0 0 16 16" fill="none" xmlns="http://www.w3.org/2000/svg">
<path d="M14.1665 4.77778V5.33333H15.1665V4.77778H14.1665ZM1.83313 5.33333V4.77778H0.83313V5.33333H1.83313ZM12.6665 4.5H13.8887V3.5H12.6665V4.5ZM2.11091 4.5H3.33313V3.5H2.11091V4.5ZM0.83313 5.33333C0.83313 7.45042 2.54937 9.16667 4.66646 9.16667V8.16667C3.10166 8.16667 1.83313 6.89814 1.83313 5.33333H0.83313ZM14.1665 5.33333C14.1665 6.89814 12.8979 8.16667 11.3331 8.16667V9.16667C13.4502 9.16667 15.1665 7.45042 15.1665 5.33333H14.1665ZM15.1665 4.77778C15.1665 4.07208 14.5944 3.5 13.8887 3.5V4.5C14.0421 4.5 14.1665 4.62437 14.1665 4.77778H15.1665ZM1.83313 4.77778C1.83313 4.62437 1.95749 4.5 2.11091 4.5V3.5C1.40521 3.5 0.83313 4.07208 0.83313 4.77778H1.83313Z" fill="white"/>
<path d="M5.19224 12.0587L5.475 12.4711L5.19224 12.0587ZM10.8074 12.0587L10.5246 12.4711L10.8074 12.0587ZM5.90158 9.55839L6.12754 9.11236L5.90158 9.55839ZM5.75369 11.6737L6.03645 12.0861L5.75369 11.6737ZM10.0981 9.55838L9.87211 9.11235L10.0981 9.55838ZM4.27599 3.16685H11.7236V2.16685H4.27599V3.16685ZM12.1659 3.57625C12.1583 4.35341 12.0767 5.50967 11.7367 6.59603C11.3951 7.68769 10.8176 8.63334 9.87211 9.11235L10.324 10.0044C11.6125 9.35167 12.3112 8.10871 12.6911 6.89468C13.0726 5.67534 13.1579 4.40883 13.1658 3.58593L12.1659 3.57625ZM10.4123 12.8335H5.58733V13.8335H10.4123V12.8335ZM6.12754 9.11236C5.18201 8.63335 4.60453 7.68769 4.26291 6.59604C3.92294 5.50968 3.84125 4.35341 3.83373 3.57626L2.83378 3.58594C2.84174 4.40885 2.92697 5.67536 3.30854 6.89469C3.68846 8.10873 4.38715 9.35168 5.67563 10.0044L6.12754 9.11236ZM9.9632 12.0861L10.5246 12.4711L11.0902 11.6463L10.5287 11.2614L9.9632 12.0861ZM5.475 12.4711L6.03645 12.0861L5.47093 11.2614L4.90947 11.6464L5.475 12.4711ZM5.3887 12.6349C5.38871 12.5694 5.42099 12.5081 5.475 12.4711L4.90947 11.6464C4.58353 11.8699 4.38871 12.2397 4.3887 12.6349L5.3887 12.6349ZM10.5246 12.4711C10.5787 12.5081 10.6109 12.5694 10.6109 12.6349L11.6109 12.6349C11.611 12.2397 11.4161 11.8699 11.0902 11.6463L10.5246 12.4711ZM5.67563 10.0044C5.86268 10.0992 5.94426 10.2489 5.94426 10.3629L6.94426 10.3628C6.94425 9.78104 6.56116 9.33203 6.12754 9.11236L5.67563 10.0044ZM5.94426 10.3629C5.94426 10.7221 5.76719 11.0582 5.47093 11.2614L6.03645 12.0861C6.60466 11.6965 6.94427 11.0518 6.94426 10.3628L5.94426 10.3629ZM5.58733 12.8335C5.47763 12.8335 5.3887 12.7446 5.3887 12.6349L4.3887 12.6349C4.38869 13.2969 4.92533 13.8335 5.58733 13.8335V12.8335ZM10.4123 13.8335C11.0743 13.8335 11.6109 13.2969 11.6109 12.6349L10.6109 12.6349C10.6109 12.7446 10.522 12.8335 10.4123 12.8335V13.8335ZM9.05539 10.3629C9.05539 11.0518 9.39501 11.6965 9.9632 12.0861L10.5287 11.2614C10.2325 11.0582 10.0554 10.7221 10.0554 10.3629H9.05539ZM9.87211 9.11235C9.43848 9.33203 9.05539 9.78105 9.05539 10.3629H10.0554C10.0554 10.2489 10.137 10.0992 10.324 10.0044L9.87211 9.11235ZM11.7236 3.16685C11.9906 3.16685 12.1679 3.36156 12.1659 3.57625L13.1658 3.58593C13.1738 2.76365 12.4937 2.16685 11.7236 2.16685V3.16685ZM4.27599 2.16685C3.50592 2.16685 2.82582 2.76366 2.83378 3.58594L3.83373 3.57626C3.83165 3.36156 4.00903 3.16685 4.27599 3.16685V2.16685Z" fill="white"/>
</svg>
