<svg width="12" height="12" viewBox="0 0 12 12" fill="none" xmlns="http://www.w3.org/2000/svg">
<path d="M6.20564 8.93614L8.56814 10.4361C8.87282 10.6283 9.24782 10.3424 9.15876 9.99083L8.47439 7.30021C8.45588 7.22563 8.45882 7.14734 8.48287 7.07436C8.50692 7.00137 8.5511 6.93667 8.61032 6.88771L10.7291 5.12052C11.0056 4.89083 10.865 4.42677 10.5041 4.40333L7.73845 4.22521C7.66299 4.22082 7.59044 4.19454 7.52967 4.14959C7.4689 4.10463 7.42254 4.04295 7.39626 3.97208L6.36501 1.37521C6.33771 1.30016 6.28798 1.23533 6.22257 1.18952C6.15716 1.14371 6.07924 1.11914 5.99939 1.11914C5.91953 1.11914 5.84161 1.14371 5.7762 1.18952C5.71079 1.23533 5.66106 1.30016 5.63376 1.37521L4.60251 3.97208C4.57623 4.04295 4.52987 4.10463 4.4691 4.14959C4.40833 4.19454 4.33579 4.22082 4.26032 4.22521L1.4947 4.40333C1.13376 4.42677 0.993138 4.89083 1.2697 5.12052L3.38845 6.88771C3.44767 6.93667 3.49185 7.00137 3.5159 7.07436C3.53995 7.14734 3.54289 7.22563 3.52439 7.30021L2.89157 9.79396C2.78376 10.2158 3.23376 10.558 3.5947 10.3283L5.79314 8.93614C5.85479 8.89694 5.92633 8.87612 5.99939 8.87612C6.07244 8.87612 6.14399 8.89694 6.20564 8.93614Z" fill="white"/>
</svg>
