<svg width="44" height="16" viewBox="0 0 44 16" fill="none" xmlns="http://www.w3.org/2000/svg">
<g clip-path="url(#clip0_738_5211)">
<rect width="44" height="16" rx="2" fill="white" fill-opacity="0.87"/>
<path d="M6.756 5.624V6.432H13.532V5.624H10.612C10.5 5.192 10.396 4.8 10.284 4.448L9.308 4.608C9.444 4.928 9.564 5.264 9.676 5.624H6.756ZM6.484 10.616V11.424H13.804V10.616H11.372C11.82 9.56 12.196 8.352 12.5 7L11.612 6.76C11.26 8.296 10.86 9.576 10.404 10.616H6.484ZM8.676 6.744L7.796 7.04C8.164 8.152 8.46 9.312 8.7 10.512L9.604 10.288C9.332 8.96 9.028 7.776 8.676 6.744ZM15.532 6.984H17.116V7.84H15.532V6.984ZM17.116 6.24H15.532V5.432H17.116V6.24ZM14.652 11.616C15.692 11.36 16.628 11.064 17.452 10.728C17.58 10.968 17.692 11.208 17.804 11.448L18.452 10.992C18.188 10.432 17.812 9.776 17.324 9.024L16.692 9.424C16.82 9.624 16.94 9.824 17.06 10.032C16.596 10.208 16.092 10.384 15.532 10.544V8.616H17.9V4.68H14.716V10.392C14.716 10.592 14.596 10.736 14.364 10.816L14.652 11.616ZM20.58 10.744C21.172 10.744 21.476 10.44 21.476 9.832V4.696H18.684V11.816H19.516V5.48H20.644V9.64C20.644 9.856 20.524 9.968 20.3 9.968L19.748 9.936L19.972 10.744H20.58ZM29.044 4.68H25.508V9.208H26.308V5.464H28.244V9.208H29.044V4.68ZM28.828 11.688C29.1 11.688 29.3 11.624 29.436 11.496C29.572 11.36 29.668 10.936 29.732 10.224L28.996 9.992C28.98 10.456 28.94 10.728 28.892 10.824C28.844 10.912 28.78 10.96 28.692 10.96H28.26C28.124 10.96 28.06 10.88 28.06 10.736V9.2H27.436C27.564 8.688 27.636 8.112 27.66 7.464V5.96H26.876V7.464C26.844 8.424 26.676 9.2 26.38 9.792C26.068 10.344 25.476 10.808 24.604 11.184L25.06 11.888C25.956 11.528 26.596 11.016 26.988 10.352C27.092 10.16 27.188 9.944 27.276 9.712V10.904C27.276 11.424 27.524 11.688 28.02 11.688H28.828ZM22.956 6.28L22.388 6.824C22.884 7.432 23.324 8.024 23.716 8.6C23.364 9.504 22.86 10.28 22.212 10.936L22.764 11.56C23.372 10.952 23.868 10.24 24.252 9.424C24.476 9.784 24.676 10.144 24.86 10.496L25.452 9.904C25.196 9.44 24.916 8.984 24.612 8.528C24.9 7.656 25.068 6.68 25.116 5.6V4.976H22.452V5.776H24.34C24.284 6.448 24.18 7.08 24.02 7.672C23.684 7.208 23.332 6.744 22.956 6.28ZM35.268 8.584H32.436C32.564 8.472 32.684 8.36 32.796 8.248H34.9C34.996 8.36 35.124 8.472 35.268 8.584ZM35.844 8.248H37.3V7.592H35.196V7.28H36.132V6.688H35.196V6.392H36.284V5.784H35.196V5.504H36.436V6.248H37.236V4.816H34.292C34.212 4.64 34.132 4.488 34.052 4.344L33.164 4.488C33.244 4.592 33.324 4.704 33.404 4.816H30.5V6.248H31.3V5.504H32.532V5.784H31.452V6.392H32.532V6.688H31.612V7.28H32.532V7.592H30.452V8.248H31.844C31.444 8.472 30.908 8.656 30.236 8.816L30.66 9.512C31.004 9.384 31.324 9.248 31.62 9.096V10.512H32.428V9.24H35.388V10.512H36.204V9.144C36.484 9.272 36.804 9.4 37.156 9.512L37.492 8.8C36.804 8.656 36.252 8.472 35.844 8.248ZM34.38 5.504V5.784H33.348V5.504H34.38ZM33.348 7.592V7.28H34.38V7.592H33.348ZM34.38 6.688H33.348V6.392H34.38V6.688ZM34.468 10.36L34.052 10.968C34.868 11.192 35.652 11.496 36.42 11.896L36.844 11.24C36.124 10.896 35.332 10.6 34.468 10.36ZM33.436 9.4C33.396 10.024 33.22 10.464 32.916 10.72C32.572 10.976 31.868 11.128 30.796 11.176L31.116 11.896C32.428 11.784 33.252 11.552 33.588 11.192C33.9 10.912 34.108 10.336 34.212 9.472L33.436 9.4Z" fill="black"/>
</g>
<defs>
<clipPath id="clip0_738_5211">
<rect width="44" height="16" rx="2" fill="white"/>
</clipPath>
</defs>
</svg>
